<svg width="9" height="14" viewBox="0 0 9 14" fill="none" xmlns="http://www.w3.org/2000/svg">
<path d="M0.807831 7.44217L7.05783 13.6922C7.1159 13.7502 7.18484 13.7963 7.26071 13.8277C7.33658 13.8592 7.4179 13.8753 7.50002 13.8753C7.58214 13.8753 7.66346 13.8592 7.73933 13.8277C7.8152 13.7963 7.88414 13.7502 7.94221 13.6922C8.00028 13.6341 8.04634 13.5652 8.07776 13.4893C8.10919 13.4134 8.12537 13.3321 8.12537 13.25C8.12537 13.1679 8.10919 13.0865 8.07776 13.0107C8.04634 12.9348 8.00028 12.8659 7.94221 12.8078L2.13361 6.99998L7.94221 1.19217C8.05948 1.07489 8.12537 0.915834 8.12537 0.749981C8.12537 0.584129 8.05948 0.425069 7.94221 0.307794C7.82493 0.190518 7.66587 0.124634 7.50002 0.124634C7.33417 0.124634 7.17511 0.190518 7.05783 0.307794L0.807831 6.55779C0.749721 6.61584 0.703621 6.68477 0.672168 6.76064C0.640716 6.83652 0.624527 6.91785 0.624527 6.99998C0.624527 7.08212 0.640716 7.16344 0.672168 7.23932C0.703621 7.31519 0.749721 7.38412 0.807831 7.44217Z" fill="#2563EB"/>
</svg>
